<svg width="390" height="353" viewBox="0 0 390 353" fill="none" xmlns="http://www.w3.org/2000/svg">
<path d="M741.436 205.999C936.866 110.56 1039.37 297.411 970.84 64.7144L947.409 -408.292L-236.745 -347.081L-273.001 221.557C-121.847 299.332 0.612632 112.779 210.83 165.582C408.07 215.126 507.982 320.008 741.436 205.999Z" fill="#CCF6FE"/>
<path d="M728.038 207.645C927.94 122.417 1021.07 314.32 964.138 78.3835L964.138 -395.228L-221.531 -395.228L-285.872 170.812C-138.759 256.292 -7.22672 76.2985 200.11 139.887C394.647 199.55 489.242 309.456 728.038 207.645Z" fill="#A270FF"/>
<path d="M934.396 268.94C1145.24 218.208 1206.43 423.072 1187.99 180.805L1263.71 -286.447L93.9636 -484.265L-60.0118 63.4405C71.4592 172.316 230.003 16.6851 424.389 114.012C606.775 205.33 682.528 329.543 934.396 268.94Z" fill="#437FEC" fill-opacity="0.33"/>
</svg>
